<svg width="20" height="5" viewBox="0 0 20 5" fill="none" xmlns="http://www.w3.org/2000/svg">
<path d="M2.25 0C3.49264 0 4.5 1.00736 4.5 2.25C4.5 3.49264 3.49264 4.5 2.25 4.5C1.00736 4.5 0 3.49264 0 2.25C0 1.00736 1.00736 0 2.25 0Z" fill="#4C4C4C"/>
<path d="M9.90234 0C11.145 0 12.1523 1.00736 12.1523 2.25C12.1523 3.49264 11.145 4.5 9.90234 4.5C8.6597 4.5 7.65234 3.49264 7.65234 2.25C7.65234 1.00736 8.6597 0 9.90234 0Z" fill="#4C4C4C"/>
<path d="M17.5547 0C18.7973 0 19.8047 1.00736 19.8047 2.25C19.8047 3.49264 18.7973 4.5 17.5547 4.5C16.312 4.5 15.3047 3.49264 15.3047 2.25C15.3047 1.00736 16.312 0 17.5547 0Z" fill="#4C4C4C"/>
</svg>
