<svg width="20" height="20" viewBox="0 0 20 20" fill="none" xmlns="http://www.w3.org/2000/svg">
<path d="M9.9 0C4.44 0 0 4.44 0 9.9C0 15.36 4.44 19.8 9.9 19.8C15.36 19.8 19.8 15.36 19.8 9.9C19.8 4.44 15.36 0 9.9 0ZM9.9 18C5.46 18 1.8 14.34 1.8 9.9C1.8 5.46 5.46 1.8 9.9 1.8C14.34 1.8 18 5.46 18 9.9C18 14.34 14.34 18 9.9 18Z" fill="#4C4C4C"/>
<path d="M9.90001 9H8.88C8.40001 9 7.98 9.42 7.98 9.9C7.98 10.38 8.40001 10.8 8.88 10.8H9V14.88C9 15.36 9.42001 15.78 9.90001 15.78C10.38 15.78 10.8 15.36 10.8 14.88V9.9C10.8 9.42 10.38 9 9.90001 9Z" fill="#4C4C4C"/>
<path d="M9.66004 4.97999C9.36003 4.97999 9.06003 5.09999 8.82003 5.33999C8.58004 5.57999 8.46004 5.81999 8.46004 6.17999C8.46004 6.83999 9.00003 7.31999 9.60003 7.31999C10.26 7.31999 10.74 6.77999 10.74 6.17999C10.8 5.51999 10.26 4.97999 9.66004 4.97999Z" fill="#4C4C4C"/>
</svg>
