<svg width="22" height="20" viewBox="0 0 22 20" fill="none" xmlns="http://www.w3.org/2000/svg">
<path fill-rule="evenodd" clip-rule="evenodd" d="M10.9014 6.41894C11.3985 6.41894 11.8014 6.82188 11.8014 7.31894V11.0589C11.8014 11.556 11.3985 11.9589 10.9014 11.9589C10.4043 11.9589 10.0014 11.556 10.0014 11.0589V7.31894C10.0014 6.82188 10.4043 6.41894 10.9014 6.41894Z" fill="#4C4C4C"/>
<path fill-rule="evenodd" clip-rule="evenodd" d="M9.7514 14.3173C9.74852 13.6774 10.2677 13.1641 10.9004 13.1641C11.5341 13.1641 12.0514 13.6767 12.0514 14.3141C12.0514 14.9491 11.5365 15.4641 10.9014 15.4641C10.2674 15.4641 9.75317 14.9509 9.7514 14.3173Z" fill="#4C4C4C"/>
<path fill-rule="evenodd" clip-rule="evenodd" d="M12.1485 2.52451C11.597 1.5585 10.2052 1.5585 9.65368 2.52451L1.99454 15.9288C1.44677 16.8866 2.13808 18.0792 3.24211 18.0792H18.5601C19.6627 18.0792 20.3551 16.887 19.8076 15.9287L12.1485 2.52451ZM13.7115 1.63174C12.4691 -0.543915 9.33316 -0.543915 8.09068 1.63174C8.09063 1.63183 8.09073 1.63166 8.09068 1.63174L0.431844 15.0355C-0.802385 17.1936 0.756135 19.8792 3.24211 19.8792H18.5601C21.0455 19.8792 22.6031 17.1935 21.3706 15.0358L13.7115 1.63174C13.7116 1.63183 13.7115 1.63166 13.7115 1.63174Z" fill="#4C4C4C"/>
</svg>
